<svg width="299" height="315" viewBox="0 0 299 315" fill="none" xmlns="http://www.w3.org/2000/svg">
<path fill-rule="evenodd" clip-rule="evenodd" d="M149.104 315L298.207 270.158V211.477L187.302 234.543L149.104 242.478V315Z" fill="#A76F2A"/>
<path fill-rule="evenodd" clip-rule="evenodd" d="M0 44.6573L149.104 0L298.207 44.6573V211.476L149.104 242.478L0 211.476V44.6573Z" fill="#3C3C3C"/>
<path fill-rule="evenodd" clip-rule="evenodd" d="M149.104 0L298.207 44.6573V211.476L149.104 242.478V0Z" fill="#323232"/>
<path fill-rule="evenodd" clip-rule="evenodd" d="M249.306 221.626V122.346L187.303 120.132V234.543L249.306 221.626Z" fill="#EBBE28"/>
<path fill-rule="evenodd" clip-rule="evenodd" d="M149.104 79.9031L153.349 68.462L149.104 53.6992L97.9883 61.8187V88.2071L149.104 79.9031Z" fill="#F0D246"/>
<path fill-rule="evenodd" clip-rule="evenodd" d="M29.71 104.815V78.6113L0 85.6236V112.012L29.71 104.815Z" fill="#F0D246"/>
<path fill-rule="evenodd" clip-rule="evenodd" d="M298.207 112.012V85.6236L268.682 78.6113V104.815L298.207 112.012Z" fill="#EBBE28"/>
<path fill-rule="evenodd" clip-rule="evenodd" d="M0 65.5097L149.104 29.1564V0L0 44.6573V65.5097Z" fill="#323232"/>
<path fill-rule="evenodd" clip-rule="evenodd" d="M149.104 29.1564L298.207 65.5097V44.6573L149.104 0V29.1564Z" fill="#3C3C3C"/>
<path fill-rule="evenodd" clip-rule="evenodd" d="M200.404 88.2071V61.8187L149.104 53.6992V79.9031L200.404 88.2071Z" fill="#EBBE28"/>
<path fill-rule="evenodd" clip-rule="evenodd" d="M0 270.158L149.104 315V242.478L0 211.477V270.158Z" fill="#B58045"/>
<path fill-rule="evenodd" clip-rule="evenodd" d="M66.9859 290.272L73.2601 292.118V266.283L105.185 272.926C105.554 273.111 106.107 273.111 106.661 273.111H106.845L148.55 281.784C148.735 281.968 148.919 281.968 149.104 281.968V275.51L109.798 267.39V234.359L103.524 233.067V266.098L71.0457 259.455C70.8612 259.271 70.6766 259.271 70.4921 259.271L45.58 254.104V221.072L39.3058 219.78V252.812L0.738137 244.877C0.553603 244.692 0.369069 244.692 0 244.692V250.967L66.9859 264.991V290.272Z" fill="#A76F2A"/>
<path fill-rule="evenodd" clip-rule="evenodd" d="M149.104 315L298.207 270.158V211.477L187.302 234.543L149.104 242.478V315Z" fill="#A76F2A"/>
<path fill-rule="evenodd" clip-rule="evenodd" d="M191.546 302.267L197.821 300.421V271.819L211.476 269.051C211.661 269.051 211.845 269.051 212.03 268.866L238.603 263.33V288.058L244.877 286.212V262.038L266.098 257.794C266.098 257.794 266.283 257.609 266.467 257.609L298.207 250.966V244.692C298.023 244.692 297.838 244.692 297.654 244.877L268.682 250.782V217.75L262.408 219.042V252.073L241.371 256.502C241.186 256.502 241.002 256.502 240.817 256.502L214.244 262.038V229.007L207.97 230.298V263.33L194.314 266.283C194.13 266.283 193.945 266.283 193.761 266.283L149.104 275.509V281.968C149.288 281.968 149.657 281.968 149.842 281.783L191.546 273.295V302.267Z" fill="#966426"/>
<path fill-rule="evenodd" clip-rule="evenodd" d="M187.303 120.132V189.701C213.691 172.724 216.275 141.169 214.798 121.055L187.303 120.132Z" fill="#EF9A20"/>
<path fill-rule="evenodd" clip-rule="evenodd" d="M223.656 121.424C224.579 140.615 229.93 166.266 249.307 183.058V122.346L223.656 121.424Z" fill="#EF9A20"/>
</svg>
