<svg width="15" height="15" viewBox="0 0 15 15" fill="none" xmlns="http://www.w3.org/2000/svg">
<path d="M9.73307 15.0001V11.7918H7.69141V11.646L7.73341 11.5585C8.66611 9.59957 9.14997 7.45725 9.14974 5.28764V5.0963C9.71028 4.89132 10.3029 4.788 10.8997 4.79122C11.6511 4.79122 12.2478 4.94639 12.6497 5.0963V5.28764C12.6497 7.45764 13.1339 9.59905 14.0661 11.5579L14.1081 11.6454V11.7912H12.0664V15.0001M5.06641 15.0001V11.2085C5.06641 10.899 5.18932 10.6023 5.40812 10.3835C5.62691 10.1647 5.92365 10.0418 6.23307 10.0418V5.37514C6.23307 5.37514 5.35807 4.7918 3.89974 4.7918C2.44141 4.7918 1.56641 5.37514 1.56641 5.37514V10.0418C1.87583 10.0418 2.17257 10.1647 2.39136 10.3835C2.61016 10.6023 2.73307 10.899 2.73307 11.2085V15.0001M10.8122 3.62514C10.8122 3.62514 9.87891 3.0418 9.87891 2.31264C9.87891 2.0422 9.98634 1.78285 10.1776 1.59162C10.3688 1.4004 10.6281 1.29297 10.8986 1.29297C11.169 1.29297 11.4284 1.4004 11.6196 1.59162C11.8108 1.78285 11.9182 2.0422 11.9182 2.31264C11.9182 3.0418 10.9872 3.62514 10.9872 3.62514H10.8122ZM3.81224 3.62514C3.81224 3.62514 2.87891 3.0418 2.87891 2.31264C2.87891 2.17873 2.90528 2.04614 2.95652 1.92243C3.00777 1.79871 3.08287 1.68631 3.17756 1.59162C3.27224 1.49694 3.38465 1.42183 3.50836 1.37059C3.63207 1.31934 3.76467 1.29297 3.89857 1.29297C4.03248 1.29297 4.16507 1.31934 4.28878 1.37059C4.41249 1.42183 4.5249 1.49694 4.61959 1.59162C4.71427 1.68631 4.78938 1.79871 4.84062 1.92243C4.89186 2.04614 4.91824 2.17873 4.91824 2.31264C4.91824 3.0418 3.98724 3.62514 3.98724 3.62514H3.81224Z" stroke="#888888"/>
</svg>
