<svg width="15" height="14" viewBox="0 0 15 14" fill="none" xmlns="http://www.w3.org/2000/svg">
<path d="M12.6807 0.682617H4.1827C3.87784 0.682617 3.63086 0.929595 3.63086 1.23446V12.7656C3.63086 13.0703 3.87784 13.3174 4.1827 13.3174H12.6807C12.9854 13.3174 13.2325 13.0703 13.2325 12.7656V1.23446C13.2325 0.929612 12.9854 0.682617 12.6807 0.682617ZM12.6807 12.7656H4.1827V1.23446H12.6807V12.7656Z" fill="#888888"/>
<path d="M5.95597 8.10039C5.95597 8.10039 5.95597 8.10055 5.95613 8.10055C6.59574 8.7833 7.4982 9.17484 8.43222 9.17484C8.43345 9.17484 8.43469 9.17484 8.43592 9.17484C8.43623 9.17484 8.43653 9.17484 8.43686 9.17484C8.43746 9.17484 8.43793 9.17468 8.43856 9.17468C9.37008 9.17299 10.2701 8.78176 10.9083 8.10055C11.4999 7.46926 11.8259 6.64564 11.8259 5.78152C11.8259 4.91755 11.5001 4.09394 10.9083 3.46249C10.2687 2.77976 9.36608 2.38818 8.43224 2.38818C7.49821 2.38818 6.59562 2.77975 5.95615 3.46249C5.95599 3.46265 5.95599 3.46265 5.95599 3.46265C5.36472 4.09347 5.03906 4.91695 5.03906 5.78152C5.03905 6.64609 5.3647 7.46971 5.95597 8.10039ZM7.78214 4.1386C7.79153 4.10255 7.80138 4.06839 7.81108 4.03436C7.81586 4.01757 7.82063 4.00002 7.82555 3.98385C7.83742 3.94397 7.84974 3.9064 7.8622 3.86945C7.86512 3.86067 7.86788 3.85113 7.87081 3.8425C7.8864 3.79737 7.90224 3.75427 7.91825 3.71346C7.92149 3.7053 7.92488 3.69808 7.9281 3.69006C7.94086 3.65833 7.95365 3.62725 7.96659 3.59829C7.97227 3.58536 7.97812 3.57365 7.984 3.56117C7.99445 3.53869 8.00508 3.51622 8.01573 3.49527C8.02232 3.48218 8.02895 3.47033 8.03557 3.45785C8.04542 3.43953 8.05512 3.42121 8.06497 3.40427C8.0719 3.39226 8.07902 3.38101 8.08595 3.36964C8.0953 3.35424 8.10485 3.33899 8.11425 3.32484C8.12132 3.31406 8.12843 3.30403 8.13553 3.29404C8.14474 3.28095 8.15384 3.26833 8.16292 3.25646C8.17001 3.24738 8.17693 3.2386 8.18387 3.23014C8.19293 3.21905 8.20187 3.20874 8.21078 3.19873C8.21757 3.19135 8.22433 3.18396 8.23096 3.17719C8.23973 3.16811 8.24853 3.15979 8.25714 3.15178C8.26361 3.14595 8.27005 3.13993 8.27639 3.13468C8.285 3.12745 8.29347 3.12115 8.30178 3.11499C8.3078 3.11069 8.3138 3.10605 8.31965 3.1022C8.32812 3.09665 8.33627 3.09221 8.3446 3.08789C8.34983 3.0851 8.35509 3.08174 8.36018 3.07942C8.36909 3.07541 8.3774 3.07282 8.38587 3.07004C8.38987 3.06879 8.39402 3.06694 8.39789 3.06603C8.40993 3.06309 8.42144 3.06139 8.43224 3.06139C8.44302 3.06139 8.45442 3.06309 8.46642 3.06603C8.47043 3.06694 8.47487 3.06895 8.47904 3.07033C8.48721 3.0728 8.49552 3.07541 8.50415 3.07942C8.50938 3.08188 8.51493 3.0851 8.52032 3.08806C8.52834 3.09237 8.53635 3.09667 8.5448 3.10206C8.55065 3.10607 8.55696 3.11085 8.56297 3.11531C8.57128 3.12131 8.57944 3.12747 8.58791 3.13456C8.59438 3.13995 8.60101 3.14611 8.60765 3.15227C8.6161 3.15997 8.62458 3.16812 8.63318 3.17691C8.64011 3.18398 8.6472 3.19168 8.65411 3.19938C8.66275 3.20893 8.67136 3.21894 8.68013 3.22957C8.68736 3.23835 8.69462 3.24743 8.70201 3.25697C8.71077 3.26852 8.71956 3.28067 8.72848 3.29332C8.7359 3.30378 8.74329 3.31425 8.75066 3.32534C8.75977 3.33905 8.76886 3.35368 8.77792 3.36862C8.78515 3.38047 8.79257 3.39233 8.7998 3.40497C8.80919 3.42112 8.81843 3.43853 8.82781 3.45595C8.83492 3.46918 8.84214 3.48213 8.84923 3.49613C8.85909 3.51569 8.86894 3.53678 8.87877 3.55773C8.88525 3.57143 8.89172 3.58452 8.8982 3.59899C8.90989 3.62517 8.92142 3.65335 8.93299 3.68168C8.93745 3.69276 8.94205 3.70292 8.94653 3.71432C8.96221 3.75467 8.97793 3.79716 8.99335 3.8418C8.99735 3.85335 9.00117 3.86629 9.00504 3.87815C9.01641 3.91219 9.0277 3.94652 9.03864 3.98303C9.04399 4.00088 9.04922 4.02029 9.05445 4.03875C9.06371 4.07109 9.07311 4.10359 9.08202 4.13792C9.08755 4.15915 9.0928 4.18165 9.0982 4.20351C9.10419 4.22798 9.11023 4.25295 9.11607 4.27818C9.04798 4.29512 8.97933 4.30914 8.91048 4.32083C8.89697 4.32316 8.88357 4.325 8.87001 4.32699C8.80993 4.33639 8.74945 4.34379 8.68893 4.34932C8.67582 4.35055 8.66275 4.35193 8.64966 4.35286C8.50492 4.36395 8.35941 4.36395 8.21468 4.35286C8.20192 4.35193 8.18912 4.35055 8.17634 4.34932C8.11539 4.34393 8.0544 4.33639 7.99374 4.32699C7.98078 4.32484 7.96772 4.32316 7.95461 4.32099C7.88549 4.30914 7.81664 4.29512 7.74829 4.27818C7.75445 4.252 7.76045 4.2263 7.76677 4.20118C7.77183 4.18032 7.7769 4.15876 7.78214 4.1386ZM9.10743 7.44462C9.09863 7.4811 9.08939 7.51589 9.08016 7.55054C9.07537 7.56887 9.07077 7.58812 9.06567 7.60598C9.05138 7.65756 9.03657 7.70729 9.02149 7.75487C9.0201 7.75935 9.01856 7.76333 9.01702 7.76781C9.00318 7.81075 8.98916 7.85219 8.97467 7.89176C8.96928 7.90653 8.96373 7.92009 8.9582 7.93442C8.94758 7.96246 8.93698 7.9903 8.9262 8.01648C8.91971 8.03204 8.91323 8.04635 8.90665 8.06128C8.89661 8.08438 8.8866 8.10748 8.87632 8.1292C8.86939 8.14383 8.86246 8.15753 8.85553 8.17153C8.84565 8.19157 8.83564 8.21127 8.8258 8.22975C8.81857 8.2433 8.81131 8.25592 8.80408 8.26869C8.79437 8.28596 8.78469 8.30273 8.77484 8.31858C8.76761 8.33061 8.76019 8.342 8.75296 8.35323C8.74327 8.368 8.73358 8.38235 8.72402 8.3959C8.71679 8.40621 8.70958 8.41606 8.7023 8.4256C8.69276 8.43823 8.68321 8.45024 8.67385 8.46163C8.66658 8.47012 8.65951 8.47876 8.65243 8.48658C8.64303 8.49707 8.63383 8.50662 8.62457 8.51584C8.61764 8.52279 8.61071 8.52988 8.60392 8.536C8.59468 8.54447 8.58561 8.55172 8.57665 8.55896C8.57018 8.56421 8.56358 8.56974 8.55711 8.57421C8.54801 8.58084 8.5391 8.58591 8.53015 8.59115C8.52431 8.59454 8.51847 8.59855 8.51278 8.60133C8.50307 8.60607 8.49367 8.60931 8.48443 8.61257C8.47996 8.61411 8.47533 8.61643 8.47088 8.61748C8.45746 8.62118 8.44455 8.62301 8.43224 8.62301C8.41992 8.62301 8.40685 8.62118 8.39343 8.61748C8.38898 8.61642 8.38433 8.61411 8.37988 8.61257C8.37048 8.60931 8.36126 8.60609 8.35157 8.60133C8.34585 8.59855 8.34002 8.59454 8.33417 8.59115C8.32521 8.58591 8.31631 8.58084 8.30705 8.57421C8.30077 8.56974 8.29413 8.56404 8.28752 8.55882C8.27858 8.55174 8.26965 8.54449 8.26039 8.536C8.25346 8.52986 8.24653 8.52262 8.23946 8.51569C8.23038 8.5066 8.2213 8.49707 8.21206 8.48676C8.20483 8.47876 8.19745 8.46996 8.1902 8.46119C8.18099 8.45011 8.1716 8.43839 8.16232 8.42609C8.1548 8.41622 8.14724 8.40607 8.13987 8.39543C8.13047 8.3822 8.12122 8.36834 8.11182 8.35402C8.10427 8.34231 8.09658 8.33047 8.08887 8.31799C8.07948 8.30259 8.07008 8.28642 8.06068 8.26979C8.05316 8.25653 8.0456 8.24332 8.03823 8.2293C8.02852 8.21129 8.01898 8.1922 8.00943 8.17279C8.0022 8.15832 7.99478 8.14399 7.98771 8.12874C7.97785 8.10781 7.96816 8.08547 7.95846 8.06315C7.95153 8.04746 7.94476 8.03235 7.93797 8.01604C7.92751 7.99079 7.91718 7.96368 7.90703 7.93691C7.90115 7.92165 7.89531 7.90735 7.88962 7.89164C7.87515 7.85189 7.86097 7.81002 7.84695 7.76691C7.84557 7.76277 7.84419 7.75921 7.84295 7.75505C7.82771 7.70731 7.81292 7.65728 7.79845 7.60539C7.7943 7.59015 7.79045 7.5738 7.78628 7.55828C7.77627 7.52071 7.76626 7.48298 7.75688 7.44327C7.75195 7.42278 7.74733 7.40106 7.74257 7.38015C7.73609 7.35087 7.72948 7.32131 7.72318 7.29114C7.79522 7.27252 7.86804 7.25758 7.94121 7.24478C7.95644 7.24202 7.97185 7.23987 7.9871 7.23742C8.04696 7.22802 8.10734 7.22046 8.16769 7.21477C8.18199 7.21339 8.19634 7.21183 8.21064 7.21076C8.35801 7.19921 8.5063 7.19921 8.65379 7.21076C8.66795 7.21183 8.68214 7.21337 8.6963 7.21477C8.75666 7.22032 8.81684 7.22786 8.87676 7.23742C8.89244 7.23987 8.90803 7.24202 8.92357 7.24478C8.99672 7.25758 9.0694 7.27268 9.14143 7.29114C9.13574 7.31853 9.12976 7.34534 9.12372 7.37182C9.11833 7.39611 9.11311 7.42106 9.10743 7.44462ZM7.91979 4.87383C7.98263 4.88335 8.04558 4.89123 8.10888 4.89723C8.13583 4.89982 8.1626 4.9023 8.18971 4.9043C8.26132 4.90937 8.33321 4.91247 8.40512 4.91308C8.41424 4.91322 8.42316 4.91415 8.43224 4.91415C8.44118 4.91415 8.44995 4.91322 8.45886 4.91308C8.5308 4.91261 8.60271 4.90937 8.67444 4.9043C8.70185 4.9023 8.72911 4.89968 8.75638 4.89705C8.81859 4.89123 8.88078 4.88335 8.94268 4.87397C8.96268 4.87089 8.98271 4.86858 9.00255 4.8652C9.07371 4.8532 9.1447 4.83918 9.21493 4.82254C9.22013 4.86074 9.22384 4.90015 9.22844 4.93895C9.23537 4.9967 9.24277 5.05412 9.24832 5.11309C9.25233 5.15605 9.2548 5.20008 9.25803 5.24334C9.26248 5.30248 9.26743 5.36114 9.27065 5.4212C9.27081 5.42613 9.27097 5.43119 9.27109 5.43612H7.59354C7.59385 5.43073 7.59385 5.42505 7.59415 5.41966C7.59707 5.36315 7.60185 5.30787 7.60602 5.25213C7.60941 5.20579 7.61202 5.15882 7.61634 5.11309C7.62173 5.05644 7.62882 5.00114 7.63528 4.94558C7.64019 4.90461 7.6442 4.86305 7.64959 4.82254C7.7201 4.83932 7.79125 4.85334 7.86271 4.86534C7.88175 4.86874 7.90084 4.87089 7.91979 4.87383ZM8.98838 6.69583C8.90292 6.68165 8.81702 6.67119 8.73062 6.66349C8.72182 6.66272 8.71305 6.66179 8.7043 6.66118C8.61389 6.65393 8.52319 6.64886 8.43221 6.64886C8.34105 6.64886 8.25035 6.65393 8.15996 6.66118C8.15104 6.66195 8.14225 6.66272 8.13347 6.66349C8.04724 6.67117 7.96163 6.68165 7.87648 6.69583C7.87186 6.69644 7.86739 6.69705 7.86295 6.69782C7.78642 6.71091 7.71019 6.72568 7.63459 6.74402C7.63258 6.72708 7.63136 6.70939 7.62952 6.69229C7.61919 6.59959 7.61027 6.50597 7.6035 6.41096C7.60073 6.37232 7.59888 6.33291 7.59657 6.2938C7.5921 6.21451 7.58871 6.13458 7.58656 6.05407C7.58594 6.03205 7.58563 6.01002 7.58531 5.988H9.27919C9.27889 6.01002 9.27859 6.03189 9.27797 6.05373C9.27599 6.13458 9.27244 6.21465 9.26797 6.29425C9.26584 6.33275 9.26397 6.37139 9.26118 6.40958C9.25411 6.50721 9.24519 6.60358 9.23441 6.69889C9.23273 6.71383 9.2318 6.72922 9.22996 6.74402C9.15417 6.7257 9.07766 6.71077 9.00097 6.69768C8.99684 6.69705 8.99254 6.6966 8.98838 6.69583ZM7.03196 5.988C7.03226 6.00909 7.03425 6.02943 7.03473 6.05036C7.03749 6.17093 7.04274 6.29011 7.05058 6.4079C7.05226 6.43193 7.05305 6.45639 7.05489 6.48042C7.06535 6.61823 7.07969 6.75344 7.09692 6.88677C7.09831 6.89816 7.09894 6.91017 7.10046 6.92158C7.08922 6.92649 7.0786 6.93251 7.06735 6.93743C7.00561 6.96468 6.94464 6.99362 6.8846 7.02456C6.86258 7.03583 6.84084 7.04754 6.81899 7.05937C6.76216 7.09017 6.70629 7.12265 6.6513 7.15653C6.63513 7.1667 6.61849 7.1761 6.60248 7.1864C6.5332 7.23075 6.46559 7.27756 6.39985 7.32681C6.38567 7.33745 6.37212 7.34884 6.35811 7.35962C6.30606 7.3998 6.2551 7.44154 6.20553 7.4848C6.19599 7.49297 6.18582 7.5002 6.17642 7.50849C5.83876 7.06891 5.63828 6.5423 5.59824 5.98799L7.03196 5.988ZM6.55402 7.913C6.56186 7.90607 6.56956 7.899 6.57758 7.89206C6.60652 7.86712 6.63623 7.84295 6.66611 7.81926C6.68457 7.80461 6.70275 7.7897 6.72153 7.77551C6.75401 7.75104 6.78744 7.72764 6.821 7.70453C6.83808 7.69266 6.85472 7.68036 6.87212 7.66895C6.91769 7.63894 6.96419 7.61045 7.01131 7.58306C7.01716 7.57966 7.0227 7.57595 7.02855 7.57256C7.08182 7.54223 7.13602 7.5139 7.19114 7.48711C7.19377 7.48572 7.19669 7.48464 7.19945 7.48326C7.20238 7.4965 7.20593 7.50821 7.20885 7.52128C7.22518 7.59274 7.24258 7.66219 7.2609 7.72962C7.26566 7.74717 7.27014 7.7655 7.27505 7.78289C7.29815 7.86467 7.32264 7.94302 7.3485 8.01816C7.35466 8.03603 7.36128 8.05251 7.36759 8.06991C7.38823 8.12764 7.40979 8.18322 7.43212 8.23681C7.4409 8.2576 7.44967 8.27821 7.4586 8.29855C7.48339 8.35458 7.5091 8.40818 7.53573 8.4593C7.53974 8.46714 7.54344 8.47624 7.54744 8.48377C7.18332 8.36522 6.84659 8.17244 6.55402 7.913ZM9.32915 8.45778C9.35533 8.40727 9.38071 8.35428 9.40535 8.29888C9.41441 8.27839 9.42322 8.25746 9.43212 8.23653C9.45414 8.1834 9.47554 8.12843 9.49619 8.07133C9.50267 8.05332 9.5094 8.03606 9.51588 8.01758C9.54162 7.94305 9.56595 7.86532 9.58887 7.78447C9.5944 7.76492 9.59949 7.74429 9.6049 7.72428C9.62228 7.65974 9.63908 7.59354 9.65479 7.52534C9.65801 7.51087 9.662 7.49794 9.66528 7.48331C9.66804 7.48469 9.6708 7.48578 9.6736 7.48716C9.72838 7.51379 9.78261 7.54227 9.83571 7.57245C9.8425 7.57632 9.84897 7.58063 9.8556 7.58463C9.90177 7.61141 9.94753 7.63943 9.99218 7.66886C10.0099 7.68055 10.027 7.6932 10.0445 7.70519C10.0775 7.72798 10.1104 7.75092 10.1424 7.77526C10.1617 7.78973 10.1805 7.80498 10.1994 7.82008C10.2287 7.84332 10.2578 7.86703 10.2861 7.89136C10.2943 7.89844 10.3023 7.90581 10.3104 7.91306C10.0178 8.17249 9.68083 8.36527 9.31652 8.48399C9.32098 8.47579 9.32481 8.46607 9.32915 8.45778ZM10.688 7.50851C10.6784 7.50006 10.6679 7.49265 10.6584 7.48434C10.6091 7.44138 10.5586 7.40011 10.5071 7.36023C10.4926 7.34915 10.4787 7.33745 10.4643 7.32651C10.3986 7.27739 10.3312 7.23073 10.2621 7.18639C10.2459 7.1759 10.229 7.16635 10.2125 7.15622C10.1578 7.12232 10.1024 7.09015 10.0459 7.05951C10.0239 7.04751 10.0017 7.03566 9.97938 7.02425C9.92009 6.99376 9.86005 6.96512 9.79922 6.93832C9.78734 6.93311 9.77612 6.92663 9.7641 6.92156C9.76567 6.91001 9.76627 6.89785 9.76781 6.88614C9.78506 6.75281 9.79922 6.6176 9.8097 6.48012C9.81154 6.45548 9.81248 6.43037 9.81401 6.40559C9.82183 6.28857 9.82708 6.17016 9.83 6.05069C9.83049 6.02958 9.83233 6.00927 9.83277 5.98802H11.2664C11.2264 6.54202 11.0258 7.06844 10.688 7.50851ZM9.82416 5.43614C9.82356 5.42291 9.82199 5.41028 9.82139 5.39719C9.81555 5.28386 9.80769 5.17175 9.79721 5.06136C9.7963 5.05167 9.79583 5.0415 9.79492 5.0318C9.78335 4.91216 9.76844 4.79499 9.75148 4.67935C9.7501 4.66919 9.74935 4.65856 9.74781 4.6484C9.75993 4.64332 9.77138 4.63685 9.78354 4.63147C9.84525 4.60468 9.90625 4.57588 9.96643 4.54539C9.98908 4.53386 10.0115 4.52201 10.034 4.50999C10.0921 4.47873 10.1489 4.44594 10.2051 4.41145C10.2213 4.40159 10.2377 4.3922 10.2539 4.38203C10.324 4.33721 10.3925 4.28994 10.4591 4.24021C10.4747 4.22866 10.4896 4.21618 10.5051 4.20418C10.5568 4.16429 10.6075 4.12287 10.6567 4.08008C10.6669 4.0713 10.678 4.06344 10.688 4.05453C10.9975 4.45763 11.1918 4.93326 11.2531 5.43614H9.82416ZM10.3104 3.65002C10.3018 3.65756 10.2932 3.6654 10.2845 3.67296C10.2547 3.69853 10.2242 3.72331 10.1934 3.74781C10.1746 3.76258 10.1561 3.77768 10.137 3.792C10.1018 3.81849 10.0656 3.84359 10.0291 3.86853C10.0134 3.87917 9.99813 3.8904 9.98229 3.90071C9.92963 3.9352 9.87591 3.968 9.82108 3.9988C9.81336 4.00324 9.8052 4.00693 9.7975 4.01126C9.75022 4.03726 9.70218 4.06206 9.65352 4.0853C9.64891 4.08745 9.64427 4.08946 9.63965 4.09162C9.63689 4.08008 9.63351 4.07021 9.63075 4.05882C9.60765 3.96565 9.58346 3.87512 9.55728 3.78981C9.55544 3.78379 9.55328 3.77844 9.55144 3.77242C9.52634 3.69204 9.49953 3.61628 9.47183 3.54301C9.4646 3.52392 9.45738 3.50481 9.44995 3.48633C9.42012 3.41151 9.38912 3.3399 9.35649 3.27323C9.35187 3.26397 9.34713 3.25568 9.34247 3.24659C9.31279 3.18762 9.28166 3.13234 9.24979 3.08013C9.24485 3.07198 9.24039 3.06213 9.2353 3.05411C9.63078 3.16977 9.99601 3.37132 10.3104 3.65002ZM7.61508 3.07938C7.58274 3.13221 7.55149 3.18809 7.5213 3.24784C7.51715 3.25629 7.51253 3.26399 7.50836 3.27263C7.47541 3.33975 7.44432 3.41183 7.41413 3.48711C7.40706 3.50498 7.40011 3.5233 7.39318 3.54178C7.36469 3.61646 7.33729 3.69391 7.31172 3.77613C7.31033 3.78043 7.30879 3.78444 7.30741 3.78874C7.28093 3.87498 7.25645 3.96644 7.23304 4.06052C7.23041 4.0713 7.22719 4.0807 7.22457 4.09162C7.21995 4.08946 7.21533 4.08745 7.21071 4.0853C7.16267 4.06236 7.11524 4.03772 7.06843 4.01201C7.06012 4.00739 7.05133 4.00338 7.04302 3.9986C6.98835 3.96798 6.93479 3.93517 6.88211 3.90083C6.8661 3.89037 6.85085 3.87913 6.83514 3.86835C6.79865 3.84355 6.76262 3.8183 6.72736 3.79182C6.70826 3.77765 6.68994 3.76272 6.6713 3.74793C6.64035 3.72347 6.60971 3.69851 6.57969 3.67281C6.57107 3.6654 6.5626 3.65756 6.55399 3.65002C6.86839 3.37132 7.23379 3.16961 7.62918 3.05397C7.6243 3.06185 7.62 3.0714 7.61508 3.07938ZM6.17647 4.05453C6.18633 4.06328 6.19711 4.07084 6.20712 4.07947C6.25654 4.12257 6.30734 4.16401 6.35909 4.20404C6.37463 4.21604 6.38973 4.22866 6.40543 4.24035C6.47195 4.28993 6.54016 4.33705 6.61005 4.38171C6.62668 4.39232 6.64392 4.40187 6.66072 4.4122C6.716 4.44622 6.77219 4.47872 6.82949 4.50952C6.85243 4.52184 6.87537 4.534 6.89861 4.54571C6.9582 4.57603 7.0184 4.60437 7.07968 4.63102C7.09214 4.63657 7.10401 4.6432 7.11664 4.64841C7.11479 4.66026 7.11388 4.67258 7.11218 4.68445C7.09725 4.78778 7.08432 4.89278 7.07354 4.99934C7.07216 5.01334 7.07015 5.02675 7.06876 5.04076C7.05721 5.16179 7.04875 5.2848 7.04245 5.40923C7.04199 5.41831 7.04092 5.42709 7.04045 5.43618H5.61186C5.67297 4.93295 5.86713 4.45733 6.17647 4.05453Z" fill="#888888"/>
<path d="M11.1638 10.0874H5.69782C5.54537 10.0874 5.42188 10.2111 5.42188 10.3633C5.42188 10.5158 5.54537 10.6393 5.69782 10.6393H11.1638C11.3163 10.6393 11.4398 10.5158 11.4398 10.3633C11.4397 10.2111 11.3163 10.0874 11.1638 10.0874Z" fill="#888888"/>
<path d="M9.92158 11.4434H6.93998C6.7877 11.4434 6.66406 11.567 6.66406 11.7193C6.66406 11.8717 6.7877 11.9952 6.93998 11.9952H9.92158C10.074 11.9952 10.1975 11.8717 10.1975 11.7193C10.1975 11.567 10.074 11.4434 9.92158 11.4434Z" fill="#888888"/>
</svg>
