<svg width="140" height="140" viewBox="0 0 140 140" fill="none" xmlns="http://www.w3.org/2000/svg">
<rect width="140" height="140" rx="70" fill="#F7F4EF"/>
<rect x="18" y="18" width="104" height="104" rx="52" fill="#D9CAAF"/>
<g clip-path="url(#clip0_7367_108782)">
<path fill-rule="evenodd" clip-rule="evenodd" d="M53.457 48.293C56.3616 45.3884 61.1654 45.7298 63.63 49.0159L67.7211 54.4708C69.7366 57.1581 69.4694 60.9185 67.0941 63.2937L64.0778 66.31C64.3701 67.0708 65.3324 68.7405 68.2628 71.6709C71.1932 74.6013 72.8629 75.5636 73.6238 75.8559L76.64 72.8397C79.0153 70.4644 82.7757 70.1971 85.463 72.2126L90.9178 76.3038C94.204 78.7684 94.5454 83.5721 91.6408 86.4767C90.6965 87.4211 90.5367 87.5808 88.9608 89.1567C87.3547 90.7628 83.9445 92.264 80.4919 92.4141C75.0889 92.649 67.7499 90.2499 58.7169 81.2169C49.6839 72.1839 47.2848 64.8449 47.5197 59.4419C47.6504 56.4364 48.6059 53.1353 50.7896 50.9855C52.3529 49.3971 52.5562 49.1938 53.457 48.293ZM52.0154 59.6374C51.8526 63.3826 53.431 69.567 61.8989 78.0349C70.3667 86.5028 76.5512 88.0812 80.2964 87.9183C83.7926 87.7663 85.6681 86.077 85.7788 85.9747L88.4588 83.2947C89.427 82.3265 89.3132 80.7253 88.2178 79.9038L82.763 75.8126C81.8672 75.1408 80.6138 75.2299 79.822 76.0216C78.6291 77.2146 77.8148 78.0409 76.2208 79.6289C72.9096 82.9275 67.2417 77.0138 65.0808 74.8529C63.095 72.8671 57.0433 67.0192 60.3016 63.7222C60.3081 63.7158 61.1857 62.8382 63.9121 60.1117C64.7039 59.32 64.793 58.0665 64.1211 57.1708L60.03 51.7159C59.2085 50.6205 57.6072 50.5067 56.639 51.4749C55.7479 52.3661 54.7394 53.3746 53.9617 54.1576C52.3611 55.7693 52.1011 57.6673 52.0154 59.6374Z" fill="#8B6343"/>
</g>
<defs>
<clipPath id="clip0_7367_108782">
<rect width="54" height="54" fill="white" transform="translate(43 43)"/>
</clipPath>
</defs>
</svg>
