<svg width="140" height="141" viewBox="0 0 140 141" fill="none" xmlns="http://www.w3.org/2000/svg">
<rect y="0.5" width="140" height="140" rx="70" fill="#F7F4EF"/>
<rect x="18" y="18.5" width="104" height="104" rx="52" fill="#D9CAAF"/>
<path d="M97.7969 53.22H74.58V47.2692C74.5805 46.7741 74.4833 46.2837 74.294 45.8262C74.1047 45.3687 73.8271 44.953 73.4769 44.6029C73.1268 44.2528 72.7111 43.9752 72.2536 43.7859C71.796 43.5967 71.3057 43.4995 70.8106 43.5H50.2689C49.7738 43.4996 49.2835 43.5968 48.8261 43.786C48.3686 43.9753 47.9529 44.2529 47.6028 44.603C47.2528 44.9531 46.9752 45.3688 46.7859 45.8263C46.5967 46.2838 46.4995 46.7741 46.5 47.2692V93.7308C46.5009 94.7301 46.8982 95.6883 47.6049 96.395C48.3115 97.1016 49.2696 97.499 50.2689 97.5H70.8105C71.8099 97.4992 72.7682 97.1018 73.4749 96.3951C74.1816 95.6884 74.5791 94.7302 74.58 93.7308V74.82H97.7973C98.5141 74.82 99.2015 74.5352 99.7084 74.0284C100.215 73.5215 100.5 72.8341 100.5 72.1173V55.9231C100.5 55.5681 100.43 55.2166 100.294 54.8887C100.158 54.5607 99.9593 54.2627 99.7083 54.0117C99.4573 53.7607 99.1593 53.5616 98.8313 53.4258C98.5034 53.2899 98.1519 53.22 97.7969 53.22ZM57.84 45.7896H63.24C63.598 45.7896 63.9414 45.9318 64.1946 46.185C64.4478 46.4382 64.59 46.7816 64.59 47.1396C64.59 47.4976 64.4478 47.841 64.1946 48.0942C63.9414 48.3474 63.598 48.4896 63.24 48.4896H57.84C57.482 48.4896 57.1386 48.3474 56.8854 48.0942C56.6322 47.841 56.49 47.4976 56.49 47.1396C56.49 46.7816 56.6322 46.4382 56.8854 46.185C57.1386 45.9318 57.482 45.7896 57.84 45.7896ZM63.2395 95.2014H57.8395C57.4814 95.2014 57.1381 95.0592 56.8849 94.806C56.6317 94.5528 56.4895 94.2095 56.4895 93.8514C56.4895 93.4934 56.6317 93.15 56.8849 92.8968C57.1381 92.6436 57.4814 92.5014 57.8395 92.5014H63.2395C63.5975 92.5014 63.9409 92.6436 64.1941 92.8968C64.4472 93.15 64.5895 93.4934 64.5895 93.8514C64.5895 94.2095 64.4472 94.5528 64.1941 94.806C63.9409 95.0592 63.5975 95.2014 63.2395 95.2014ZM72.2038 90.21H48.8757V50.79H72.2038V53.22H57.8178C57.1076 53.22 56.4265 53.5021 55.9243 54.0043C55.4221 54.5065 55.14 55.1876 55.14 55.8978V72.1397C55.14 72.4917 55.2093 72.8402 55.344 73.1654C55.4787 73.4906 55.6761 73.7861 55.925 74.035C56.1739 74.2839 56.4694 74.4813 56.7946 74.616C57.1198 74.7507 57.4683 74.82 57.8203 74.82H62.7V79.1579C62.7 79.4218 62.7783 79.6799 62.9249 79.8994C63.0716 80.1189 63.28 80.2899 63.5239 80.3909C63.7678 80.4919 64.0362 80.5184 64.2951 80.4669C64.554 80.4154 64.7918 80.2882 64.9784 80.1016L70.26 74.82H72.2038V90.21ZM69.277 65.0028C69.5868 65.1827 69.8129 65.4778 69.906 65.8238C69.9991 66.1698 69.9515 66.5385 69.7738 66.8496C69.686 67.0043 69.5683 67.1401 69.4276 67.249C69.2869 67.3579 69.126 67.4377 68.9542 67.4839C68.7824 67.5302 68.6031 67.5418 68.4268 67.5182C68.2505 67.4946 68.0806 67.4362 67.927 67.3464L66.21 66.3528V68.34C66.21 68.698 66.0678 69.0414 65.8146 69.2946C65.5614 69.5478 65.218 69.69 64.86 69.69C64.502 69.69 64.1586 69.5478 63.9054 69.2946C63.6522 69.0414 63.51 68.698 63.51 68.34V66.3528L61.7924 67.3464C61.6389 67.4362 61.469 67.4946 61.2926 67.5182C61.1163 67.5418 60.937 67.5302 60.7652 67.4839C60.5934 67.4377 60.4325 67.3579 60.2918 67.249C60.1511 67.1401 60.0335 67.0043 59.9456 66.8496C59.7681 66.5385 59.7208 66.1698 59.8138 65.8239C59.9069 65.478 60.1328 65.1829 60.4424 65.0028L62.16 64.02L60.4424 63.0264C60.1317 62.8474 59.9047 62.5522 59.8116 62.2059C59.7184 61.8596 59.7667 61.4904 59.9457 61.1796C60.1247 60.8689 60.4198 60.6419 60.7662 60.5488C61.1125 60.4556 61.4817 60.5039 61.7924 60.6829L63.51 61.6764V59.7C63.51 59.342 63.6522 58.9986 63.9054 58.7454C64.1586 58.4922 64.502 58.35 64.86 58.35C65.218 58.35 65.5614 58.4922 65.8146 58.7454C66.0678 58.9986 66.21 59.342 66.21 59.7V61.6764L67.927 60.6829C68.2378 60.5039 68.607 60.4556 68.9533 60.5488C69.2996 60.6419 69.5948 60.8689 69.7738 61.1796C69.9528 61.4904 70.001 61.8596 69.9079 62.2059C69.8147 62.5522 69.5878 62.8474 69.277 63.0264L67.56 64.02L69.277 65.0028ZM82.237 65.0028C82.5468 65.1827 82.7729 65.4778 82.866 65.8238C82.9591 66.1698 82.9115 66.5385 82.7338 66.8496C82.646 67.0043 82.5283 67.1401 82.3876 67.249C82.2469 67.3579 82.086 67.4377 81.9142 67.4839C81.7424 67.5302 81.5631 67.5418 81.3868 67.5182C81.2105 67.4946 81.0406 67.4362 80.887 67.3464L79.17 66.3528V68.34C79.17 68.698 79.0278 69.0414 78.7746 69.2946C78.5214 69.5478 78.178 69.69 77.82 69.69C77.462 69.69 77.1186 69.5478 76.8654 69.2946C76.6122 69.0414 76.47 68.698 76.47 68.34V66.3528L74.7524 67.3464C74.5989 67.4362 74.429 67.4946 74.2526 67.5182C74.0763 67.5418 73.897 67.5302 73.7252 67.4839C73.5534 67.4377 73.3925 67.3579 73.2518 67.249C73.1111 67.1401 72.9935 67.0043 72.9056 66.8496C72.7281 66.5385 72.6808 66.1698 72.7738 65.8239C72.8669 65.478 73.0928 65.1829 73.4024 65.0028L75.12 64.02L73.4024 63.0264C73.0917 62.8474 72.8647 62.5522 72.7716 62.2059C72.6784 61.8596 72.7267 61.4904 72.9057 61.1796C73.0847 60.8689 73.3798 60.6419 73.7262 60.5488C74.0725 60.4556 74.4417 60.5039 74.7524 60.6829L76.47 61.6764V59.7C76.47 59.342 76.6122 58.9986 76.8654 58.7454C77.1186 58.4922 77.462 58.35 77.82 58.35C78.178 58.35 78.5214 58.4922 78.7746 58.7454C79.0278 58.9986 79.17 59.342 79.17 59.7V61.6764L80.887 60.6829C81.1978 60.5039 81.567 60.4556 81.9133 60.5488C82.2596 60.6419 82.5548 60.8689 82.7338 61.1796C82.9128 61.4904 82.961 61.8596 82.8679 62.2059C82.7747 62.5522 82.5478 62.8474 82.237 63.0264L80.52 64.02L82.237 65.0028ZM95.197 65.0028C95.5068 65.1827 95.7329 65.4778 95.826 65.8238C95.9191 66.1698 95.8715 66.5385 95.6938 66.8496C95.606 67.0043 95.4883 67.1401 95.3476 67.249C95.2069 67.3579 95.046 67.4377 94.8742 67.4839C94.7024 67.5302 94.5231 67.5418 94.3468 67.5182C94.1705 67.4946 94.0006 67.4362 93.847 67.3464L92.13 66.3528V68.34C92.13 68.698 91.9878 69.0414 91.7346 69.2946C91.4814 69.5478 91.138 69.69 90.78 69.69C90.422 69.69 90.0786 69.5478 89.8254 69.2946C89.5722 69.0414 89.43 68.698 89.43 68.34V66.3528L87.7124 67.3464C87.5588 67.4362 87.389 67.4946 87.2126 67.5182C87.0363 67.5418 86.857 67.5302 86.6852 67.4839C86.5134 67.4377 86.3525 67.3579 86.2118 67.249C86.0711 67.1401 85.9535 67.0043 85.8656 66.8496C85.6881 66.5385 85.6408 66.1698 85.7338 65.8239C85.8269 65.478 86.0528 65.1829 86.3624 65.0028L88.08 64.02L86.3624 63.0264C86.0517 62.8474 85.8247 62.5522 85.7316 62.2059C85.6384 61.8596 85.6867 61.4904 85.8657 61.1796C86.0447 60.8689 86.3398 60.6419 86.6862 60.5488C87.0325 60.4556 87.4017 60.5039 87.7124 60.6829L89.43 61.6764V59.7C89.43 59.342 89.5722 58.9986 89.8254 58.7454C90.0786 58.4922 90.422 58.35 90.78 58.35C91.138 58.35 91.4814 58.4922 91.7346 58.7454C91.9878 58.9986 92.13 59.342 92.13 59.7V61.6764L93.847 60.6829C94.0009 60.5942 94.1707 60.5368 94.3468 60.5138C94.5229 60.4908 94.7018 60.5027 94.8733 60.5488C95.0448 60.5949 95.2055 60.6744 95.3463 60.7826C95.4871 60.8909 95.6051 61.0258 95.6938 61.1796C95.7824 61.3335 95.8399 61.5034 95.8629 61.6794C95.8859 61.8555 95.874 62.0344 95.8279 62.2059C95.7818 62.3774 95.7023 62.5381 95.5941 62.6789C95.4858 62.8197 95.3509 62.9378 95.197 63.0264L93.48 64.02L95.197 65.0028Z" fill="#8B6343"/>
</svg>
