<svg width="12" height="12" viewBox="0 0 12 12" fill="none" xmlns="http://www.w3.org/2000/svg">
<g clip-path="url(#clip0_7583_132828)">
<path d="M10.6881 5.25001H10.5006V1.53751C10.5006 1.22919 10.3781 0.933507 10.1601 0.715496C9.9421 0.497485 9.64641 0.375008 9.3381 0.375008H8.4006C8.28227 0.374512 8.16501 0.397452 8.0556 0.442506C7.94618 0.487559 7.84677 0.553834 7.7631 0.637506C7.67942 0.721177 7.61315 0.82059 7.5681 0.930007C7.52304 1.03942 7.5001 1.15668 7.5006 1.27501V1.55251C7.17942 1.63543 6.89479 1.82248 6.69123 2.08439C6.48767 2.3463 6.37668 2.6683 6.3756 3.00001V3.37501C6.3756 3.47446 6.41511 3.56985 6.48543 3.64017C6.55576 3.7105 6.65114 3.75001 6.7506 3.75001H9.0006C9.10005 3.75001 9.19544 3.7105 9.26576 3.64017C9.33609 3.56985 9.3756 3.47446 9.3756 3.37501V3.00001C9.37452 2.6683 9.26352 2.3463 9.05997 2.08439C8.85641 1.82248 8.57178 1.63543 8.2506 1.55251V1.27501C8.2506 1.23523 8.2664 1.19707 8.29453 1.16894C8.32266 1.14081 8.36082 1.12501 8.4006 1.12501H9.3381C9.4472 1.12599 9.55155 1.16976 9.6287 1.24691C9.70585 1.32406 9.74962 1.42841 9.7506 1.53751V5.25001H1.3131C1.11615 5.24868 0.923834 5.30966 0.763636 5.42422C0.603438 5.53878 0.483566 5.70107 0.421161 5.88787C0.358756 6.07467 0.357014 6.27641 0.416183 6.46426C0.475352 6.65211 0.592403 6.81644 0.750598 6.93376V8.05876C0.752247 8.5672 0.910924 9.06273 1.20493 9.47756C1.49893 9.89239 1.91391 10.2063 2.3931 10.3763L1.93935 11.0438C1.88507 11.1264 1.86566 11.2272 1.88532 11.3241C1.90499 11.421 1.96214 11.5063 2.04435 11.5613C2.10474 11.6036 2.17687 11.6259 2.2506 11.625C2.31236 11.6247 2.37309 11.6091 2.42739 11.5797C2.48169 11.5502 2.52788 11.5078 2.56185 11.4563L3.2031 10.5H8.7981L9.43935 11.4563C9.47332 11.5078 9.51951 11.5502 9.5738 11.5797C9.6281 11.6091 9.68883 11.6247 9.7506 11.625C9.82432 11.6259 9.89646 11.6036 9.95685 11.5613C10.0391 11.5063 10.0962 11.421 10.1159 11.3241C10.1355 11.2272 10.1161 11.1264 10.0618 11.0438L9.6081 10.3575C10.0873 10.1875 10.5023 9.87364 10.7963 9.45881C11.0903 9.04398 11.249 8.54846 11.2506 8.04001V6.91501C11.4012 6.79549 11.5112 6.63239 11.5657 6.44799C11.6201 6.26359 11.6163 6.06688 11.5548 5.88472C11.4933 5.70257 11.377 5.54385 11.2219 5.43025C11.0667 5.31665 10.8803 5.2537 10.6881 5.25001ZM8.6256 3.00001H7.1256C7.1256 2.8011 7.20462 2.61033 7.34527 2.46968C7.48592 2.32903 7.67669 2.25001 7.8756 2.25001C8.07451 2.25001 8.26528 2.32903 8.40593 2.46968C8.54658 2.61033 8.6256 2.8011 8.6256 3.00001ZM1.3131 6.00001H10.6881C10.7378 6.00001 10.7855 6.01976 10.8207 6.05492C10.8558 6.09009 10.8756 6.13778 10.8756 6.18751C10.8756 6.23724 10.8558 6.28493 10.8207 6.32009C10.7855 6.35525 10.7378 6.37501 10.6881 6.37501H1.3131C1.26337 6.37501 1.21568 6.35525 1.18052 6.32009C1.14535 6.28493 1.1256 6.23724 1.1256 6.18751C1.1256 6.13778 1.14535 6.09009 1.18052 6.05492C1.21568 6.01976 1.26337 6.00001 1.3131 6.00001ZM10.5006 8.04001C10.4996 8.49322 10.3191 8.92759 9.99866 9.24807C9.67818 9.56854 9.24381 9.74902 8.7906 9.75001H3.2106C2.75738 9.74902 2.32301 9.56854 2.00254 9.24807C1.68207 8.92759 1.50159 8.49322 1.5006 8.04001V7.12501H10.5006V8.04001Z" fill="#8B6343"/>
</g>
<defs>
<clipPath id="clip0_7583_132828">
<rect width="12" height="12" fill="white"/>
</clipPath>
</defs>
</svg>
