<svg width="12" height="12" viewBox="0 0 12 12" fill="none" xmlns="http://www.w3.org/2000/svg">
<path d="M1.40025 8.4209H0.75V9.52115H1.40025V8.4209Z" stroke="#8B6343" stroke-width="0.7" stroke-miterlimit="2" stroke-linecap="round" stroke-linejoin="round"/>
<path d="M11.2499 8.4209H10.5996V9.52115H11.2499V8.4209Z" stroke="#8B6343" stroke-width="0.7" stroke-miterlimit="2" stroke-linecap="round" stroke-linejoin="round"/>
<path fill-rule="evenodd" clip-rule="evenodd" d="M0.75 6.35197V7.84222H11.25V6.35197C11.25 6.07784 11.0272 5.85547 10.7531 5.85547H1.24688C0.97275 5.85547 0.75 6.07784 0.75 6.35197Z" stroke="#8B6343" stroke-width="0.7" stroke-miterlimit="2" stroke-linecap="round" stroke-linejoin="round"/>
<path fill-rule="evenodd" clip-rule="evenodd" d="M1.61719 3.32362V5.85562H10.3832V3.32362C10.3832 2.85787 10.1972 2.47949 9.96844 2.47949H2.03194C1.80319 2.47949 1.61719 2.85787 1.61719 3.32362Z" stroke="#8B6343" stroke-width="0.7" stroke-miterlimit="2" stroke-linecap="round" stroke-linejoin="round"/>
<path d="M11.25 7.8418H0.75V8.42042H11.25V7.8418Z" stroke="#8B6343" stroke-width="0.7" stroke-miterlimit="2" stroke-linecap="round" stroke-linejoin="round"/>
<path fill-rule="evenodd" clip-rule="evenodd" d="M5.46866 5.01292C5.46866 4.85805 5.34303 4.73242 5.18816 4.73242H2.73753C2.58266 4.73242 2.45703 4.85805 2.45703 5.01292V5.5743C2.45703 5.72917 2.58266 5.85517 2.73753 5.85517H5.18816C5.34303 5.85517 5.46866 5.72917 5.46866 5.5743V5.01292Z" stroke="#8B6343" stroke-width="0.7" stroke-miterlimit="2" stroke-linecap="round" stroke-linejoin="round"/>
<path fill-rule="evenodd" clip-rule="evenodd" d="M9.54288 5.01292C9.54288 4.85805 9.41725 4.73242 9.26238 4.73242H6.81175C6.65688 4.73242 6.53125 4.85805 6.53125 5.01292V5.5743C6.53125 5.72917 6.65688 5.85517 6.81175 5.85517H9.26238C9.41725 5.85517 9.54288 5.72917 9.54288 5.5743V5.01292Z" stroke="#8B6343" stroke-width="0.7" stroke-miterlimit="2" stroke-linecap="round" stroke-linejoin="round"/>
</svg>
