<svg width="25" height="24" viewBox="0 0 25 24" fill="none" xmlns="http://www.w3.org/2000/svg">
<path fill-rule="evenodd" clip-rule="evenodd" d="M3.75 5C3.75 2.79086 5.54086 1 7.75 1H16.0931C17.154 1 18.1714 1.42143 18.9216 2.17157L20.5784 3.82843C21.3286 4.57857 21.75 5.59599 21.75 6.65685V19C21.75 21.2091 19.9591 23 17.75 23H7.75C5.54086 23 3.75 21.2091 3.75 19V5ZM19.75 8V19C19.75 20.1046 18.8546 21 17.75 21H7.75C6.64543 21 5.75 20.1046 5.75 19V5C5.75 3.89543 6.64543 3 7.75 3H14.75V5C14.75 6.65685 16.0931 8 17.75 8H19.75ZM19.6391 6C19.5409 5.7176 19.3796 5.45808 19.1642 5.24264L17.5074 3.58579C17.2919 3.37035 17.0324 3.20914 16.75 3.11094V5C16.75 5.55228 17.1977 6 17.75 6H19.6391Z" fill="#777E91"/>
<path d="M12.3672 9.07588C12.2493 9.12468 12.1388 9.19702 12.0429 9.29289L9.04289 12.2929C8.65237 12.6834 8.65237 13.3166 9.04289 13.7071C9.43342 14.0976 10.0666 14.0976 10.4571 13.7071L11.75 12.4142V17C11.75 17.5523 12.1977 18 12.75 18C13.3023 18 13.75 17.5523 13.75 17V12.4142L15.0429 13.7071C15.4334 14.0976 16.0666 14.0976 16.4571 13.7071C16.8476 13.3166 16.8476 12.6834 16.4571 12.2929L13.4571 9.29289C13.1625 8.99825 12.7297 8.92591 12.3672 9.07588Z" fill="#777E91"/>
</svg>
