<svg width="15" height="15" viewBox="0 0 15 15" fill="none" xmlns="http://www.w3.org/2000/svg">
<path d="M9.33317 15.0001V11.7918H7.2915V11.646L7.3335 11.5585C8.2662 9.59957 8.75007 7.45725 8.74984 5.28764V5.0963C9.31038 4.89132 9.903 4.788 10.4998 4.79122C11.2512 4.79122 11.8479 4.94639 12.2498 5.0963V5.28764C12.2498 7.45764 12.734 9.59905 13.6662 11.5579L13.7082 11.6454V11.7912H11.6665V15.0001M4.6665 15.0001V11.2085C4.6665 10.899 4.78942 10.6023 5.00821 10.3835C5.22701 10.1647 5.52375 10.0418 5.83317 10.0418V5.37514C5.83317 5.37514 4.95817 4.7918 3.49984 4.7918C2.0415 4.7918 1.1665 5.37514 1.1665 5.37514V10.0418C1.47592 10.0418 1.77267 10.1647 1.99146 10.3835C2.21025 10.6023 2.33317 10.899 2.33317 11.2085V15.0001M10.4123 3.62514C10.4123 3.62514 9.479 3.0418 9.479 2.31264C9.479 2.0422 9.58643 1.78285 9.77766 1.59162C9.96888 1.4004 10.2282 1.29297 10.4987 1.29297C10.7691 1.29297 11.0285 1.4004 11.2197 1.59162C11.4109 1.78285 11.5183 2.0422 11.5183 2.31264C11.5183 3.0418 10.5873 3.62514 10.5873 3.62514H10.4123ZM3.41234 3.62514C3.41234 3.62514 2.479 3.0418 2.479 2.31264C2.479 2.17873 2.50538 2.04614 2.55662 1.92243C2.60786 1.79871 2.68297 1.68631 2.77766 1.59162C2.87234 1.49694 2.98475 1.42183 3.10846 1.37059C3.23217 1.31934 3.36477 1.29297 3.49867 1.29297C3.63258 1.29297 3.76517 1.31934 3.88888 1.37059C4.01259 1.42183 4.125 1.49694 4.21968 1.59162C4.31437 1.68631 4.38948 1.79871 4.44072 1.92243C4.49196 2.04614 4.51834 2.17873 4.51834 2.31264C4.51834 3.0418 3.58734 3.62514 3.58734 3.62514H3.41234Z" stroke="#888888"/>
</svg>
