<svg width="15" height="20" viewBox="0 0 15 20" fill="none" xmlns="http://www.w3.org/2000/svg">
<path d="M7.5 19C7.5 19 14 12.7391 14 8.04348C14 4.15347 11.0899 1 7.5 1C3.91015 1 1 4.15347 1 8.04348C1 12.7391 7.5 19 7.5 19Z" fill="#8B6343"/>
<path d="M9.57665 7.75014C9.57665 8.99278 8.64702 10.0001 7.50027 10.0001C6.35351 10.0001 5.42388 8.99278 5.42388 7.75014C5.42388 6.5075 6.35351 5.50014 7.50027 5.50014C8.64702 5.50014 9.57665 6.5075 9.57665 7.75014Z" fill="#8B6343"/>
<path d="M7.5 19C7.5 19 14 12.7391 14 8.04348C14 4.15347 11.0899 1 7.5 1C3.91015 1 1 4.15347 1 8.04348C1 12.7391 7.5 19 7.5 19Z" stroke="white"/>
<path d="M9.57665 7.75014C9.57665 8.99278 8.64702 10.0001 7.50027 10.0001C6.35351 10.0001 5.42388 8.99278 5.42388 7.75014C5.42388 6.5075 6.35351 5.50014 7.50027 5.50014C8.64702 5.50014 9.57665 6.5075 9.57665 7.75014Z" stroke="white"/>
</svg>
