<svg width="12" height="12" viewBox="0 0 12 12" fill="none" xmlns="http://www.w3.org/2000/svg">
<g clip-path="url(#clip0_7583_132849)">
<path d="M9.93787 1.49964V10.4996C9.93787 10.5991 9.89836 10.6945 9.82803 10.7648C9.75771 10.8351 9.66232 10.8746 9.56287 10.8746C9.46341 10.8746 9.36803 10.8351 9.2977 10.7648C9.22738 10.6945 9.18787 10.5991 9.18787 10.4996V7.87464H6.93787C6.88479 7.87411 6.8324 7.86259 6.78399 7.8408C6.73559 7.81902 6.69222 7.78745 6.65662 7.74808C6.62173 7.70876 6.59538 7.66263 6.57924 7.6126C6.5631 7.56258 6.55753 7.50975 6.56287 7.45745C6.67905 6.51861 6.86392 5.58956 7.11599 4.67777C7.67849 2.69027 8.46131 1.49964 9.43631 1.14808C9.49278 1.12666 9.55364 1.11939 9.61357 1.12689C9.6735 1.13439 9.73069 1.15643 9.78014 1.1911C9.8296 1.22576 9.86983 1.272 9.89732 1.32578C9.92481 1.37956 9.93873 1.43925 9.93787 1.49964ZM5.99568 3.6887L5.62068 1.4387C5.61268 1.39007 5.59518 1.34349 5.56917 1.30163C5.54317 1.25976 5.50918 1.22343 5.46913 1.1947C5.42908 1.16597 5.38377 1.14541 5.33578 1.1342C5.28779 1.12298 5.23806 1.12133 5.18943 1.12933C5.09122 1.14549 5.00345 1.2 4.94543 1.28088C4.88741 1.36175 4.86389 1.46236 4.88006 1.56058L5.18474 3.37464H4.31287V1.49964C4.31287 1.40018 4.27336 1.3048 4.20303 1.23448C4.13271 1.16415 4.03732 1.12464 3.93787 1.12464C3.83841 1.12464 3.74303 1.16415 3.6727 1.23448C3.60238 1.3048 3.56287 1.40018 3.56287 1.49964V3.37464H2.69099L2.99568 1.56058C3.00368 1.51195 3.00203 1.46222 2.99081 1.41423C2.9796 1.36624 2.95904 1.32092 2.93031 1.28088C2.90158 1.24083 2.86525 1.20684 2.82338 1.18084C2.78151 1.15483 2.73494 1.13733 2.68631 1.12933C2.63768 1.12133 2.58795 1.12298 2.53996 1.1342C2.49196 1.14541 2.44665 1.16597 2.40661 1.1947C2.36656 1.22343 2.33257 1.25976 2.30656 1.30163C2.28056 1.34349 2.26306 1.39007 2.25506 1.4387L1.88006 3.6887C1.87579 3.70872 1.87421 3.72921 1.87537 3.74964C1.87591 4.23162 2.04486 4.69826 2.35299 5.06888C2.66113 5.4395 3.08909 5.6908 3.56287 5.77933V10.4996C3.56287 10.5991 3.60238 10.6945 3.6727 10.7648C3.74303 10.8351 3.83841 10.8746 3.93787 10.8746C4.03732 10.8746 4.13271 10.8351 4.20303 10.7648C4.27336 10.6945 4.31287 10.5991 4.31287 10.4996V5.77933C4.78665 5.6908 5.21461 5.4395 5.52274 5.06888C5.83088 4.69826 5.99983 4.23162 6.00037 3.74964C6.00112 3.73077 5.99955 3.71188 5.99568 3.69339V3.6887Z" fill="#8B6343"/>
</g>
<defs>
<clipPath id="clip0_7583_132849">
<rect width="12" height="12" fill="white"/>
</clipPath>
</defs>
</svg>
