<svg width="12" height="12" viewBox="0 0 12 12" fill="none" xmlns="http://www.w3.org/2000/svg">
<path d="M1.5 9.5C1.35833 9.5 1.23967 9.452 1.144 9.356C1.048 9.26033 1 9.14167 1 9C1 8.85833 1.048 8.73967 1.144 8.644C1.23967 8.548 1.35833 8.5 1.5 8.5H10.5C10.6417 8.5 10.7603 8.548 10.856 8.644C10.952 8.73967 11 8.85833 11 9C11 9.14167 10.952 9.26033 10.856 9.356C10.7603 9.452 10.6417 9.5 10.5 9.5H1.5ZM1.5 8V7.5C1.5 6.43333 1.82717 5.49167 2.4815 4.675C3.1355 3.85833 3.975 3.34167 5 3.125V3C5 2.725 5.098 2.48967 5.294 2.294C5.48967 2.098 5.725 2 6 2C6.275 2 6.5105 2.098 6.7065 2.294C6.90217 2.48967 7 2.725 7 3V3.125C8.03333 3.34167 8.875 3.85833 9.525 4.675C10.175 5.49167 10.5 6.43333 10.5 7.5V8H1.5Z" fill="#8B6343"/>
</svg>
