<svg width="14" height="14" viewBox="0 0 14 14" fill="none" xmlns="http://www.w3.org/2000/svg">
<path d="M11.8818 0.683594H3.38388C3.07901 0.683594 2.83203 0.930571 2.83203 1.23544V12.7666C2.83203 13.0713 3.07901 13.3184 3.38388 13.3184H11.8818C12.1865 13.3184 12.4337 13.0713 12.4337 12.7666V1.23544C12.4337 0.930589 12.1865 0.683594 11.8818 0.683594ZM11.8818 12.7666H3.38388V1.23544H11.8818V12.7666Z" fill="#888888"/>
<path d="M5.15715 8.10088C5.15715 8.10088 5.15715 8.10104 5.1573 8.10104C5.79691 8.78378 6.69937 9.17533 7.6334 9.17533C7.63462 9.17533 7.63586 9.17533 7.63709 9.17533C7.6374 9.17533 7.6377 9.17533 7.63803 9.17533C7.63863 9.17533 7.6391 9.17517 7.63973 9.17517C8.57126 9.17348 9.47126 8.78224 10.1095 8.10104C10.7011 7.46974 11.0271 6.64612 11.0271 5.78201C11.0271 4.91803 10.7012 4.09443 10.1095 3.46298C9.46988 2.78025 8.56725 2.38867 7.63341 2.38867C6.69939 2.38867 5.79679 2.78023 5.15732 3.46298C5.15716 3.46314 5.15716 3.46314 5.15716 3.46314C4.56589 4.09396 4.24023 4.91744 4.24023 5.78201C4.24022 6.64658 4.56587 7.4702 5.15715 8.10088ZM6.98331 4.13909C6.9927 4.10304 7.00256 4.06888 7.01225 4.03484C7.01703 4.01806 7.02181 4.00051 7.02672 3.98434C7.03859 3.94446 7.05091 3.90688 7.06337 3.86994C7.06629 3.86116 7.06906 3.85162 7.07198 3.84299C7.08757 3.79786 7.10341 3.75476 7.11942 3.71395C7.12266 3.70579 7.12605 3.69856 7.12927 3.69055C7.14203 3.65882 7.15482 3.62774 7.16776 3.59878C7.17344 3.58585 7.17929 3.57414 7.18517 3.56166C7.19562 3.53917 7.20626 3.5167 7.2169 3.49576C7.22349 3.48267 7.23013 3.47082 7.23674 3.45834C7.24659 3.44002 7.25629 3.4217 7.26614 3.40476C7.27307 3.39275 7.28019 3.3815 7.28712 3.37012C7.29647 3.35472 7.30602 3.33948 7.31542 3.32532C7.32249 3.31454 7.3296 3.30452 7.3367 3.29452C7.34591 3.28143 7.35501 3.26882 7.36409 3.25695C7.37118 3.24787 7.37811 3.23908 7.38504 3.23063C7.3941 3.21954 7.40304 3.20923 7.41195 3.19922C7.41874 3.19183 7.4255 3.18445 7.43213 3.17768C7.4409 3.16859 7.4497 3.16028 7.45831 3.15227C7.46478 3.14644 7.47122 3.14042 7.47756 3.13517C7.48617 3.12794 7.49464 3.12164 7.50295 3.11548C7.50897 3.11118 7.51497 3.10654 7.52082 3.10269C7.52929 3.09714 7.53744 3.0927 7.54577 3.08837C7.55101 3.08559 7.55626 3.08223 7.56135 3.0799C7.57026 3.0759 7.57857 3.07331 7.58704 3.07052C7.59105 3.06928 7.59519 3.06743 7.59906 3.06652C7.6111 3.06358 7.62262 3.06188 7.63341 3.06188C7.64419 3.06188 7.65559 3.06358 7.66759 3.06652C7.6716 3.06743 7.67604 3.06944 7.68021 3.07082C7.68838 3.07329 7.69669 3.0759 7.70532 3.0799C7.71055 3.08237 7.7161 3.08559 7.72149 3.08855C7.72951 3.09285 7.73752 3.09716 7.74597 3.10255C7.75182 3.10656 7.75814 3.11133 7.76414 3.1158C7.77245 3.1218 7.78061 3.12796 7.78908 3.13505C7.79555 3.14044 7.80218 3.1466 7.80882 3.15276C7.81727 3.16046 7.82576 3.16861 7.83435 3.1774C7.84128 3.18447 7.84837 3.19217 7.85528 3.19987C7.86392 3.20942 7.87253 3.21943 7.8813 3.23005C7.88853 3.23884 7.89579 3.24792 7.90318 3.25746C7.91194 3.26901 7.92073 3.28115 7.92965 3.29381C7.93707 3.30427 7.94446 3.31474 7.95183 3.32583C7.96094 3.33953 7.97003 3.35416 7.97909 3.36911C7.98632 3.38096 7.99374 3.39282 8.00097 3.40546C8.01036 3.42161 8.0196 3.43902 8.02898 3.45643C8.03609 3.46966 8.04332 3.48261 8.0504 3.49661C8.06026 3.51618 8.07011 3.53727 8.07994 3.55821C8.08642 3.57192 8.09289 3.58501 8.09937 3.59948C8.11106 3.62566 8.12259 3.65383 8.13416 3.68217C8.13862 3.69324 8.14322 3.70341 8.1477 3.7148C8.16338 3.75516 8.1791 3.79765 8.19452 3.84229C8.19852 3.85384 8.20234 3.86677 8.20621 3.87864C8.21758 3.91268 8.22887 3.94701 8.23981 3.98352C8.24516 4.00137 8.25039 4.02077 8.25563 4.03924C8.26488 4.07158 8.27428 4.10407 8.28319 4.13841C8.28872 4.15964 8.29397 4.18214 8.29938 4.204C8.30536 4.22846 8.3114 4.25344 8.31724 4.27867C8.24915 4.29561 8.1805 4.30963 8.11165 4.32132C8.09814 4.32365 8.08474 4.32548 8.07118 4.32748C8.0111 4.33688 7.95062 4.34428 7.8901 4.34981C7.877 4.35103 7.86392 4.35242 7.85083 4.35334C7.70609 4.36444 7.56058 4.36444 7.41585 4.35334C7.4031 4.35242 7.39029 4.35103 7.37751 4.34981C7.31656 4.34442 7.25557 4.33688 7.19492 4.32748C7.18195 4.32533 7.16889 4.32365 7.15579 4.32148C7.08666 4.30963 7.01782 4.29561 6.94946 4.27867C6.95562 4.25249 6.96162 4.22678 6.96794 4.20167C6.973 4.18081 6.97807 4.15925 6.98331 4.13909ZM8.3086 7.44511C8.2998 7.48159 8.29056 7.51638 8.28133 7.55103C8.27654 7.56935 8.27194 7.5886 8.26684 7.60647C8.25255 7.65804 8.23774 7.70778 8.22266 7.75536C8.22127 7.75984 8.21973 7.76381 8.21819 7.76829C8.20435 7.81124 8.19033 7.85268 8.17584 7.89225C8.17045 7.90702 8.16491 7.92058 8.15938 7.93491C8.14875 7.96295 8.13815 7.99079 8.12737 8.01697C8.12088 8.03253 8.1144 8.04684 8.10782 8.06177C8.09778 8.08487 8.08777 8.10797 8.07749 8.12969C8.07056 8.14432 8.06363 8.15802 8.0567 8.17202C8.04682 8.19206 8.03681 8.21176 8.02697 8.23024C8.01974 8.24379 8.01248 8.2564 8.00525 8.26918C7.99554 8.28645 7.98586 8.30322 7.97601 8.31907C7.96878 8.33109 7.96136 8.34249 7.95414 8.35372C7.94444 8.36849 7.93475 8.38284 7.92519 8.39639C7.91796 8.40669 7.91075 8.41655 7.90347 8.42608C7.89394 8.43872 7.88438 8.45072 7.87502 8.46212C7.86776 8.4706 7.86069 8.47925 7.8536 8.48707C7.8442 8.49755 7.835 8.50711 7.82574 8.51633C7.81881 8.52328 7.81188 8.53037 7.80509 8.53649C7.79585 8.54496 7.78678 8.55221 7.77782 8.55945C7.77135 8.5647 7.76475 8.57023 7.75828 8.57469C7.74918 8.58133 7.74027 8.5864 7.73133 8.59163C7.72548 8.59503 7.71964 8.59904 7.71395 8.60182C7.70424 8.60656 7.69484 8.6098 7.6856 8.61305C7.68114 8.61459 7.6765 8.61692 7.67205 8.61797C7.65863 8.62167 7.64572 8.6235 7.63341 8.6235C7.62109 8.6235 7.60802 8.62167 7.5946 8.61797C7.59015 8.6169 7.5855 8.61459 7.58105 8.61305C7.57166 8.6098 7.56243 8.60658 7.55274 8.60182C7.54702 8.59904 7.54119 8.59503 7.53534 8.59163C7.52638 8.5864 7.51748 8.58133 7.50822 8.57469C7.50194 8.57023 7.4953 8.56453 7.48869 8.55931C7.47975 8.55223 7.47082 8.54498 7.46156 8.53649C7.45463 8.53035 7.4477 8.5231 7.44063 8.51617C7.43155 8.50709 7.42247 8.49755 7.41323 8.48725C7.406 8.47925 7.39862 8.47045 7.39137 8.46168C7.38217 8.4506 7.37277 8.43888 7.36349 8.42657C7.35597 8.4167 7.34841 8.40655 7.34104 8.39591C7.33164 8.38268 7.32239 8.36882 7.31299 8.35451C7.30545 8.3428 7.29775 8.33095 7.29005 8.31848C7.28065 8.30308 7.27125 8.28691 7.26185 8.27028C7.25433 8.25702 7.24677 8.2438 7.2394 8.22979C7.22969 8.21178 7.22015 8.19269 7.2106 8.17328C7.20337 8.15881 7.19595 8.14447 7.18888 8.12923C7.17903 8.1083 7.16933 8.08595 7.15964 8.06364C7.15271 8.04794 7.14593 8.03284 7.13914 8.01653C7.12868 7.99128 7.11835 7.96417 7.1082 7.9374C7.10232 7.92214 7.09648 7.90784 7.09079 7.89213C7.07632 7.85238 7.06214 7.8105 7.04813 7.7674C7.04674 7.76325 7.04536 7.7597 7.04412 7.75554C7.02888 7.7078 7.01409 7.65776 6.99962 7.60588C6.99547 7.59063 6.99162 7.57429 6.98745 7.55877C6.97744 7.52119 6.96743 7.48346 6.95805 7.44376C6.95312 7.42326 6.9485 7.40155 6.94374 7.38063C6.93726 7.35136 6.93065 7.3218 6.92435 7.29163C6.9964 7.27301 7.06921 7.25806 7.14238 7.24527C7.15761 7.24251 7.17302 7.24035 7.18827 7.2379C7.24813 7.22851 7.30851 7.22095 7.36887 7.21526C7.38316 7.21388 7.39751 7.21232 7.41181 7.21125C7.55918 7.1997 7.70747 7.1997 7.85496 7.21125C7.86912 7.21232 7.88331 7.21386 7.89747 7.21526C7.95783 7.22081 8.01801 7.22835 8.07793 7.2379C8.09361 7.24035 8.1092 7.24251 8.12474 7.24527C8.19789 7.25806 8.27057 7.27317 8.3426 7.29163C8.33691 7.31902 8.33093 7.34583 8.32489 7.3723C8.3195 7.39659 8.31429 7.42155 8.3086 7.44511ZM7.12096 4.87432C7.1838 4.88384 7.24675 4.89171 7.31005 4.89772C7.337 4.90031 7.36377 4.90279 7.39088 4.90479C7.46249 4.90986 7.53438 4.91296 7.60629 4.91357C7.61541 4.91371 7.62433 4.91464 7.63341 4.91464C7.64236 4.91464 7.65112 4.91371 7.66003 4.91357C7.73197 4.9131 7.80388 4.90986 7.87561 4.90479C7.90302 4.90279 7.93028 4.90017 7.95755 4.89754C8.01976 4.89171 8.08196 4.88384 8.14385 4.87446C8.16386 4.87138 8.18388 4.86907 8.20372 4.86569C8.27488 4.85369 8.34587 4.83967 8.4161 4.82303C8.4213 4.86123 8.42501 4.90064 8.42961 4.93944C8.43654 4.99719 8.44394 5.0546 8.44949 5.11358C8.4535 5.15654 8.45597 5.20057 8.4592 5.24383C8.46365 5.30296 8.4686 5.36162 8.47182 5.42168C8.47198 5.42662 8.47214 5.43168 8.47226 5.43661H6.79471C6.79502 5.43122 6.79502 5.42553 6.79532 5.42014C6.79824 5.36364 6.80302 5.30835 6.80719 5.25262C6.81058 5.20628 6.81319 5.15931 6.81751 5.11358C6.8229 5.05693 6.82999 5.00163 6.83645 4.94607C6.84136 4.9051 6.84537 4.86354 6.85076 4.82303C6.92127 4.83981 6.99242 4.85383 7.06388 4.86583C7.08292 4.86923 7.10201 4.87138 7.12096 4.87432ZM8.18955 6.69631C8.10409 6.68214 8.01819 6.67167 7.93179 6.66397C7.92299 6.6632 7.91422 6.66228 7.90547 6.66166C7.81506 6.65442 7.72436 6.64934 7.63338 6.64934C7.54222 6.64934 7.45152 6.65442 7.36113 6.66166C7.35221 6.66243 7.34342 6.6632 7.33464 6.66397C7.24841 6.67166 7.1628 6.68214 7.07765 6.69631C7.07303 6.69693 7.06857 6.69754 7.06412 6.69831C6.98759 6.7114 6.91136 6.72617 6.83576 6.74451C6.83375 6.72757 6.83253 6.70988 6.83069 6.69278C6.82036 6.60008 6.81144 6.50646 6.80467 6.41145C6.8019 6.37281 6.80005 6.3334 6.79774 6.29429C6.79327 6.21499 6.78988 6.13507 6.78773 6.05455C6.78711 6.03254 6.7868 6.01051 6.78648 5.98849H8.48036C8.48006 6.01051 8.47977 6.03238 8.47914 6.05422C8.47716 6.13507 8.47361 6.21513 8.46914 6.29474C8.46701 6.33324 8.46514 6.37188 8.46235 6.41007C8.45528 6.5077 8.44636 6.60407 8.43558 6.69938C8.4339 6.71432 8.43297 6.7297 8.43113 6.74451C8.35534 6.72619 8.27883 6.71126 8.20215 6.69817C8.19802 6.69754 8.19371 6.69708 8.18955 6.69631ZM6.23313 5.98849C6.23343 6.00958 6.23543 6.02991 6.2359 6.05084C6.23866 6.17142 6.24391 6.29059 6.25175 6.40839C6.25343 6.43241 6.25422 6.45688 6.25606 6.48091C6.26652 6.61872 6.28086 6.75392 6.29809 6.88726C6.29948 6.89865 6.30011 6.91066 6.30163 6.92206C6.29039 6.92698 6.27977 6.933 6.26852 6.93792C6.20678 6.96517 6.14581 6.99411 6.08577 7.02505C6.06375 7.03632 6.04202 7.04803 6.02016 7.05986C5.96334 7.09066 5.90746 7.12314 5.85247 7.15702C5.8363 7.16719 5.81966 7.17658 5.80365 7.18689C5.73437 7.23124 5.66676 7.27805 5.60102 7.32729C5.58684 7.33793 5.5733 7.34933 5.55928 7.36011C5.50723 7.40029 5.45627 7.44202 5.4067 7.48528C5.39716 7.49346 5.38699 7.50068 5.37759 7.50898C5.03993 7.0694 4.83945 6.54279 4.79941 5.98847L6.23313 5.98849ZM5.75519 7.91349C5.76303 7.90656 5.77073 7.89949 5.77875 7.89254C5.80769 7.86761 5.83741 7.84344 5.86728 7.81974C5.88574 7.8051 5.90392 7.79019 5.9227 7.77599C5.95518 7.75153 5.98861 7.72813 6.02217 7.70501C6.03925 7.69315 6.05589 7.68085 6.07329 7.66944C6.11886 7.63942 6.16536 7.61093 6.21248 7.58355C6.21833 7.58015 6.22388 7.57644 6.22972 7.57305C6.28299 7.54272 6.33719 7.51439 6.39231 7.48759C6.39494 7.48621 6.39786 7.48513 6.40063 7.48375C6.40355 7.49699 6.4071 7.5087 6.41002 7.52177C6.42635 7.59322 6.44375 7.66268 6.46207 7.73011C6.46683 7.74766 6.47131 7.76598 6.47623 7.78338C6.49933 7.86516 6.52381 7.9435 6.54967 8.01865C6.55583 8.03652 6.56245 8.053 6.56877 8.0704C6.5894 8.12813 6.61096 8.18371 6.63329 8.2373C6.64207 8.25808 6.65084 8.2787 6.65977 8.29903C6.68456 8.35507 6.71027 8.40867 6.73691 8.45979C6.74091 8.46763 6.74461 8.47673 6.74861 8.48425C6.38449 8.36571 6.04776 8.17293 5.75519 7.91349ZM8.53032 8.45827C8.5565 8.40776 8.58188 8.35477 8.60652 8.29937C8.61558 8.27887 8.62439 8.25794 8.63329 8.23701C8.65531 8.18388 8.67671 8.12892 8.69736 8.07181C8.70384 8.05381 8.71057 8.03655 8.71705 8.01807C8.74279 7.94354 8.76712 7.8658 8.79004 7.78495C8.79557 7.76541 8.80066 7.74477 8.80607 7.72477C8.82345 7.66023 8.84025 7.59403 8.85596 7.52583C8.85918 7.51136 8.86317 7.49843 8.86645 7.4838C8.86921 7.48518 8.87198 7.48626 8.87478 7.48765C8.92955 7.51428 8.98378 7.54275 9.03688 7.57294C9.04367 7.57681 9.05014 7.58111 9.05678 7.58512C9.10294 7.6119 9.1487 7.63991 9.19335 7.66935C9.21106 7.68104 9.22814 7.69369 9.24569 7.70568C9.27866 7.72846 9.31161 7.75141 9.34362 7.77575C9.36289 7.79022 9.38168 7.80546 9.40062 7.82057C9.42988 7.84381 9.45896 7.86752 9.48731 7.89184C9.49543 7.89893 9.50345 7.9063 9.51162 7.91355C9.21893 8.17298 8.882 8.36576 8.51769 8.48448C8.52215 8.47627 8.52598 8.46656 8.53032 8.45827ZM9.88913 7.509C9.87957 7.50055 9.86911 7.49314 9.85959 7.48483C9.81031 7.44187 9.75979 7.4006 9.70823 7.36072C9.69374 7.34964 9.67988 7.33793 9.66543 7.327C9.59982 7.27787 9.53237 7.23122 9.46325 7.18687C9.44708 7.17639 9.43014 7.16684 9.41367 7.1567C9.359 7.12281 9.30358 7.09064 9.24705 7.06C9.22504 7.04799 9.20288 7.03615 9.18055 7.02474C9.12126 6.99425 9.06122 6.9656 9.00039 6.93881C8.98851 6.9336 8.97729 6.92712 8.96527 6.92205C8.96684 6.9105 8.96744 6.89833 8.96898 6.88663C8.98623 6.75329 9.00039 6.61809 9.01087 6.48061C9.01271 6.45597 9.01366 6.43086 9.01518 6.40608C9.023 6.28905 9.02825 6.17065 9.03117 6.05118C9.03166 6.03007 9.0335 6.00975 9.03394 5.98851H10.4676C10.4276 6.54251 10.227 7.06892 9.88913 7.509ZM9.02533 5.43663C9.02473 5.4234 9.02316 5.41076 9.02256 5.39767C9.01672 5.28434 9.00886 5.17224 8.99838 5.06185C8.99747 5.05215 8.997 5.04199 8.99609 5.03229C8.98452 4.91264 8.96961 4.79548 8.95265 4.67984C8.95127 4.66967 8.95052 4.65905 8.94898 4.64888C8.9611 4.64381 8.97255 4.63733 8.98471 4.63196C9.04642 4.60517 9.10742 4.57636 9.1676 4.54588C9.19025 4.53435 9.21272 4.5225 9.23519 4.51048C9.29325 4.47922 9.35006 4.44643 9.40627 4.41193C9.42242 4.40208 9.43889 4.39268 9.45506 4.38252C9.52513 4.3377 9.59366 4.29043 9.66032 4.2407C9.67587 4.22915 9.6908 4.21667 9.70624 4.20466C9.75795 4.16478 9.80863 4.12336 9.85789 4.08057C9.86804 4.07179 9.87914 4.06393 9.88913 4.05502C10.1986 4.45812 10.3929 4.93375 10.4542 5.43663H9.02533ZM9.51158 3.65051C9.50297 3.65805 9.49436 3.66589 9.4857 3.67345C9.45585 3.69902 9.42538 3.7238 9.39454 3.7483C9.3758 3.76307 9.35729 3.77817 9.33819 3.79249C9.30295 3.81898 9.26674 3.84408 9.23027 3.86901C9.21454 3.87965 9.1993 3.89089 9.18346 3.9012C9.1308 3.93569 9.07708 3.96848 9.02225 3.99928C9.01453 4.00373 9.00638 4.00742 8.99868 4.01174C8.95139 4.03775 8.90335 4.06255 8.85469 4.08579C8.85008 4.08794 8.84545 4.08995 8.84083 4.0921C8.83806 4.08057 8.83468 4.0707 8.83192 4.05931C8.80882 3.96614 8.78463 3.87561 8.75845 3.7903C8.75662 3.78428 8.75445 3.77892 8.75261 3.7729C8.72751 3.69253 8.7007 3.61677 8.673 3.5435C8.66577 3.5244 8.65855 3.50529 8.65113 3.48681C8.62129 3.412 8.5903 3.34039 8.55766 3.27372C8.55304 3.26446 8.5483 3.25616 8.54364 3.24708C8.51396 3.18811 8.48283 3.13282 8.45096 3.08062C8.44603 3.07247 8.44156 3.06261 8.43647 3.0546C8.83195 3.17026 9.19718 3.3718 9.51158 3.65051ZM6.81625 3.07987C6.78391 3.1327 6.75266 3.18858 6.72247 3.24832C6.71832 3.25678 6.7137 3.26448 6.70954 3.27312C6.67658 3.34023 6.64549 3.41232 6.6153 3.4876C6.60823 3.50547 6.60128 3.52379 6.59435 3.54227C6.56586 3.61694 6.53846 3.6944 6.51289 3.77661C6.51151 3.78092 6.50997 3.78493 6.50858 3.78923C6.48211 3.87547 6.45762 3.96693 6.43421 4.06101C6.43158 4.07179 6.42836 4.08118 6.42574 4.0921C6.42112 4.08995 6.4165 4.08794 6.41188 4.08579C6.36384 4.06284 6.31642 4.0382 6.2696 4.0125C6.26129 4.00788 6.25251 4.00387 6.24419 3.99909C6.18952 3.96847 6.13596 3.93565 6.08328 3.90132C6.06727 3.89085 6.05203 3.87962 6.03631 3.86884C5.99982 3.84404 5.96379 3.81879 5.92853 3.79231C5.90944 3.77814 5.89111 3.76321 5.87248 3.74842C5.84152 3.72396 5.81088 3.699 5.78086 3.67329C5.77224 3.66589 5.76377 3.65805 5.75516 3.65051C6.06956 3.3718 6.43496 3.1701 6.83036 3.05446C6.82547 3.06233 6.82117 3.07189 6.81625 3.07987ZM5.37765 4.05502C5.3875 4.06377 5.39828 4.07133 5.40829 4.07996C5.45771 4.12306 5.50851 4.1645 5.56026 4.20452C5.5758 4.21653 5.5909 4.22915 5.6066 4.24084C5.67312 4.29041 5.74133 4.33754 5.81123 4.3822C5.82785 4.39281 5.84509 4.40236 5.86189 4.41269C5.91717 4.44671 5.97336 4.4792 6.03066 4.51C6.0536 4.52232 6.07654 4.53449 6.09978 4.54619C6.15937 4.57652 6.21957 4.60485 6.28086 4.63151C6.29332 4.63705 6.30518 4.64369 6.31782 4.6489C6.31596 4.66075 6.31505 4.67307 6.31335 4.68493C6.29843 4.78827 6.28549 4.89327 6.27471 4.99983C6.27333 5.01383 6.27132 5.02723 6.26994 5.04125C6.25839 5.16228 6.24992 5.28529 6.24362 5.40971C6.24316 5.4188 6.24209 5.42758 6.24162 5.43666H4.81303C4.87414 4.93343 5.0683 4.45782 5.37765 4.05502Z" fill="#888888"/>
<path d="M10.365 10.0879H4.89899C4.74654 10.0879 4.62305 10.2115 4.62305 10.3638C4.62305 10.5163 4.74654 10.6398 4.89899 10.6398H10.365C10.5174 10.6398 10.6409 10.5163 10.6409 10.3638C10.6409 10.2115 10.5174 10.0879 10.365 10.0879Z" fill="#888888"/>
<path d="M9.12275 11.4453H6.14116C5.98887 11.4453 5.86523 11.5689 5.86523 11.7212C5.86523 11.8737 5.98887 11.9972 6.14116 11.9972H9.12275C9.2752 11.9972 9.39866 11.8737 9.39866 11.7212C9.39866 11.5689 9.2752 11.4453 9.12275 11.4453Z" fill="#888888"/>
</svg>
