<svg width="16" height="16" viewBox="0 0 16 16" fill="none" xmlns="http://www.w3.org/2000/svg">
<path d="M10.9996 9.33301C9.99961 9.33301 9.19961 9.59967 8.59961 9.93301C9.53294 10.733 9.93294 11.6663 9.99961 11.733L10.0663 11.8663V13.333H15.3996V11.9997C15.3329 11.9997 14.2663 9.33301 10.9996 9.33301Z" fill="#8B6343"/>
<path d="M10.9993 7.99967C12.288 7.99967 13.3327 6.95501 13.3327 5.66634C13.3327 4.37768 12.288 3.33301 10.9993 3.33301C9.71068 3.33301 8.66602 4.37768 8.66602 5.66634C8.66602 6.95501 9.71068 7.99967 10.9993 7.99967Z" fill="#8B6343"/>
<path d="M2.66602 5.66634C2.66602 4.39967 3.73268 3.33301 4.99935 3.33301C6.26602 3.33301 7.33268 4.39967 7.33268 5.66634C7.33268 6.93301 6.26602 7.99967 4.99935 7.99967C3.73268 7.99967 2.66602 6.93301 2.66602 5.66634ZM4.99935 9.33301C1.73268 9.33301 0.666016 11.9997 0.666016 11.9997V13.333H9.33268V11.9997C9.33268 11.9997 8.26602 9.33301 4.99935 9.33301Z" fill="#8B6343"/>
</svg>
