<svg width="12" height="12" viewBox="0 0 12 12" fill="none" xmlns="http://www.w3.org/2000/svg">
<path d="M5.99956 7.25C5.29123 7.25 4.5829 7.54167 4.12456 8.08333C3.7079 8.58333 2.9579 7.91667 3.37456 7.41667C4.04123 6.66667 4.99956 6.25 5.99956 6.25C6.99956 6.25 7.95789 6.66667 8.62456 7.41667C9.04123 7.91667 8.29123 8.58333 7.87456 8.08333C7.41623 7.54167 6.70789 7.25 5.99956 7.25ZM5.99956 10.75C5.45789 10.75 4.99956 10.2917 4.99956 9.75C4.99956 9.20833 5.45789 8.75 5.99956 8.75C6.54123 8.75 6.99956 9.20833 6.99956 9.75C6.99956 10.2917 6.54123 10.75 5.99956 10.75ZM5.99956 4.75C4.66623 4.75 3.4579 5.20833 2.49956 6.16667C2.0829 6.58333 1.29123 5.95833 1.79123 5.45833C2.91623 4.33333 4.41623 3.75 5.99956 3.75C7.58289 3.75 9.08289 4.33333 10.2079 5.45833C10.7079 5.95833 9.91623 6.58333 9.49956 6.16667C8.54123 5.20833 7.33289 4.75 5.99956 4.75ZM5.99956 2.25C4.08289 2.25 2.29123 2.95833 0.916229 4.25C0.416229 4.70833 -0.292104 4 0.207896 3.54167C1.8329 2.04167 3.8329 1.25 5.99956 1.25C8.16623 1.25 10.1662 2.04167 11.7912 3.54167C12.2912 4 11.5829 4.70833 11.0829 4.25C9.7079 2.95833 7.91623 2.25 5.99956 2.25Z" fill="#8B6343"/>
</svg>
